<svg xmlns="http://www.w3.org/2000/svg" viewBox="0 0 158.42 69.72"><defs><style>.cls-1{fill:#cf1f2e;}.cls-2{fill:#cf202f;}</style></defs><title>Asset 1</title><g id="Layer_2" data-name="Layer 2"><g id="Layer_1-2" data-name="Layer 1"><path class="cls-1" d="M153.19,21.17c-.81-2.7-6.87-1.43-5.53,1.84,1,2.47,6.88,3.91,9.67,8,4.34,6.43-5.28,13.59-12.55,10.16-5.13-2.41-5.15-6.16-4.81-7.7.49-2.28,3-2.32,3.35-1.11.47,2.21-.56,2.1-.49,3,.4,3.65,6.36,5.21,9.49,2,4.3-4.36.53-7.18-.22-7.72-2-1.45-4.82-1.81-6.58-4.23-3.8-5.19,2.1-9.69,6.42-8.39,2,.6,3.56,2,3.18,3.9-.32,1.57-1.57,1.43-1.93.24m-114.34,16c-.87-3.38-.33-10.35.2-14.43,1-7.35,3.07-11.42,3.08-15.89,0-2.08-.65-6.39-5.2-6.57C25.7-.11,21.56,27.2,21,31.06c-.23-1.77-.1-11.85-.93-19.2C18.88,1,16.53.38,14.21.2c-8.4-.62-9,15.59-8.89,31.05,0-3.16.39-9.6-2.58-12.9C1.27,16.72-1,16.88.51,19.05c.17.23.35.74.58,1.08C4,24.52,3.4,42.06,6.36,41.92c.93,0,2.33-.42,2.21-4.36-.35-11.88.55-33.15,4.6-33.17,4.29,0,3.34,21.13,4.59,29.36.7,4.17,5,4.52,6.39-1.41,1.79-7.92,1.88-13,5.8-21.28,5.21-11,9.51-7.37,7.66.27-1,3.92-4.13,13.37-2.54,24.23.46,3.16,2.5,7.16,4,6.3.87-.49.43-2-.25-4.65m6.53-16.68c-1.09.9-4.66,8.37-3.11,16,1.5,6.35,5.91,7.94,10.81,2.13,2.72,5.94,12.3,3.22,17.34-4.08a20.42,20.42,0,0,0,.67,4.34c.47,2.13,2.79,3,3.39,1.15.51-1.56,2.36-9.49,6.89-14.18,1.18-1.22,5.19-2.86,4.11,1.49-.26,1.06-2.14,7.52-2.08,10.38s1,5.46,3,4.21c.84-.53.47-3,.36-4.47-.44-6.27,1.52-9.32,2.52-11.91s.29-5.7-4.07-5.06c-4.72.68-9.31,6.13-11.66,13.05,0-11,5.84-21.89,9.66-31.2.6-1.1-1.81-3.87-4.47-1-2.45,2.63-7.58,18.89-8,26.5-.18,1.31-2.24,6.77-5.37,9.13s-8.42,3.49-8.51-2.27,3.11-10.89,5.5-11.87c1.31-.54,2,.63,2.47,1.25.78.93,3.79,1.49,3.7-1.22s-3.19-5.1-7.52-3c-6.33,3.1-8.18,10.48-8.68,13.58-.66,4.09-2.26,5.82-2.64,6.09s-2.83,2.74-3.22-3.08A28.9,28.9,0,0,1,48.3,26.12a20.35,20.35,0,0,0,1.08-3.19,2.42,2.42,0,0,0-4-2.4m4.51-8.27A3.28,3.28,0,0,0,47.48,17a2.18,2.18,0,0,0,2.69.88,4.73,4.73,0,0,0,2.54-3.4c0-1.45-.83-2.4-2.82-2.24m55.68,11.91c.29.59,1.45.77,1.82-.6.42-1.54-.91-5.36-3.88-5.45s-5.13,1.52-7.3,3.91c-2,2.22-7.85,10.41-7.49,16.38.26,3.18,3.15,4.34,6.51,2.38,4.07-2.39,7-6.81,7.56-7.55.16,5.22,4.59,8.62,9.87,3.59a11,11,0,0,0,3.21,3.81c3.84,2.63,10.71,2.09,15.77-5.92a34,34,0,0,0,2,5.93c1,2,3.13,2.36,3.29-.24.06-.83-.85-2.79-1.56-5.46-2-7.6-4.89-20.9,1.5-29.84,2.73-3,5.59-3.82,6-.31.23,1.93-.13,10.47-6.4,21.71-.91,2,1,2.51,1.59,1.19.88-2,9-14.37,8.82-22.74-.13-5-7.46-7.66-12.69-.92-5,6.47-5.39,19.07-3.62,26.23-3.4,6.22-7.16,11.23-12,8.73-5.08-3.18-3.47-14-.11-16.43,2.27-1.62,3.66.27,2.42,2.6A10.46,10.46,0,0,1,117,29.55c-1.39,1.1-.5,2.49.81,2a11.13,11.13,0,0,0,6.8-7.32c2.22-7.12-6.46-9.68-10.85-1.55a17.58,17.58,0,0,0-1.86,11c-.89,1.06-3.83,5-4.32,2.33s.3-6.69.47-7.83c.45-2.93-2.48-4.1-4.21-1.55s-5.23,9.78-9.4,11.82c-4,2.17-.33-9.94,2.78-13.4,1.86-2.29,4.74-4.75,7.56-1.84.45.54.51.36.79.93m51.3-7.32H157c.17,0,.25.07.25.18s-.12.18-.28.18h-.13Zm0,.54H157c.15,0,.23.06.25.19a.82.82,0,0,0,.09.29h.3a1,1,0,0,1-.09-.29.33.33,0,0,0-.22-.3h0a.32.32,0,0,0,.25-.29.33.33,0,0,0-.11-.25.69.69,0,0,0-.42-.1,2.52,2.52,0,0,0-.46,0v1.2h.27Zm.2-1.1a1,1,0,1,1-.93.95.92.92,0,0,1,.93-.95Zm0-.24a1.2,1.2,0,1,0,0,2.4,1.2,1.2,0,1,0,0-2.4Z"/><path class="cls-1" d="M41,66.47V58.13l-3.42,8.34H35.65L32.23,58.2v8.27H30V54.57h3.06l3.57,8.59,3.49-8.59h3.16v11.9Zm6.48-4.75,2-.3c.47-.07.62-.3.62-.59,0-.59-.45-1.07-1.39-1.07a1.47,1.47,0,0,0-1.58,1.34l-2-.42A3.29,3.29,0,0,1,48.72,58c2.62,0,3.59,1.48,3.59,3.14v4.06a9.34,9.34,0,0,0,.1,1.31h-2a5.58,5.58,0,0,1-.09-1,2.75,2.75,0,0,1-2.43,1.22A2.61,2.61,0,0,1,45,64.22,2.55,2.55,0,0,1,47.48,61.72Zm2.65,1.41v-.37L48.27,63a1.05,1.05,0,0,0-1,1.05,1,1,0,0,0,1.07,1A1.67,1.67,0,0,0,50.13,63.13ZM62.34,65a14.8,14.8,0,0,0,.07,1.5H60.28a5,5,0,0,1-.09-1,2.58,2.58,0,0,1-2.31,1.16A4.34,4.34,0,0,1,57.81,58a2.47,2.47,0,0,1,2.33,1V54.32h2.2Zm-4.19-.3a2.09,2.09,0,0,0,2-2.36,2,2,0,0,0-2-2.3,2.35,2.35,0,0,0,0,4.66ZM72,64.1a3.72,3.72,0,0,1-3.76,2.62A4.39,4.39,0,0,1,68,58c2.55,0,4.07,1.63,4.07,4.28,0,.32,0,.65,0,.69H66.13a2,2,0,0,0,2.08,1.88,1.82,1.82,0,0,0,1.88-1.26Zm-2.08-2.7A1.67,1.67,0,0,0,68,59.77a1.79,1.79,0,0,0-1.85,1.63Zm8.4,5.07V54.32h2.2v4.8A2.94,2.94,0,0,1,83,58c2.42,0,3.81,1.87,3.81,4.32s-1.54,4.36-3.89,4.36a2.78,2.78,0,0,1-2.45-1.21v1ZM82.51,60a2.09,2.09,0,0,0-2.06,2.33,2.11,2.11,0,0,0,2.06,2.35,2.36,2.36,0,0,0,0-4.68Zm6.28,9.73,1.94-4.29-3.5-7.22h2.5L91.93,63l2-4.83h2.38L91.15,69.72Zm13.84,0,2-4.29-3.51-7.22h2.5l2.2,4.83,2-4.83h2.38L105,69.72Zm16.58-7.38A4.33,4.33,0,1,1,114.88,58,4.24,4.24,0,0,1,119.21,62.34Zm-2.23,0a2.11,2.11,0,1,0-2.1,2.35A2.12,2.12,0,0,0,117,62.34Zm9.23,3.24a2.63,2.63,0,0,1-2.29,1.11,3,3,0,0,1-3.13-3.26V58.21H123V63a1.47,1.47,0,0,0,1.51,1.66A1.49,1.49,0,0,0,126.09,63v-4.8h2.23V65a15,15,0,0,0,.08,1.5h-2.13A6.41,6.41,0,0,1,126.21,65.58Z"/><path class="cls-2" d="M130.43,56.66v1.77H130V56.66h-.69v-.4h1.8v.4Z"/><path class="cls-2" d="M133.44,58.43V56.91l-.63,1.52h-.35l-.63-1.51v1.51h-.4V56.26H132l.65,1.57.64-1.57h.58v2.17Z"/></g></g></svg>