<svg xmlns="http://www.w3.org/2000/svg" width="40" height="40" viewBox="0 0 40 40">
    <path fill="#CF181F" fill-rule="evenodd" d="M24.084 33.508V22.513c0-.405-.329-.733-.733-.733h-6.702c-.404 0-.733.328-.733.733v10.995H5.654V18.22h28.692v15.288H24.084zm-1.466-5.864h-1.78v1.466h1.78v4.398h-5.236V23.246h5.236v4.398zM3.14 38.534H36.86v-3.56H3.14v3.56zm29.842-21.78H7.017L20 6.03l12.983 10.723zM2.967 18.198l-1.202-1.45L20 1.683l10.995 9.082v.02h.022l7.218 5.961-1.201 1.451L20.467 4.515c-.272-.223-.662-.223-.934 0L2.967 18.198zM28.272 6.597V1.466h2.723v7.399L28.25 6.597h.022zm8.392 13.198c.137.113.303.167.467.167.21 0 .42-.09.565-.265l2.136-2.58c.124-.15.183-.344.165-.537-.018-.193-.113-.372-.262-.496l-7.274-6.009V.733c0-.405-.329-.733-.733-.733h-4.189c-.404 0-.733.328-.733.733v4.672L20.467.168c-.272-.223-.662-.223-.934 0L.266 16.084c-.15.124-.244.303-.263.496-.018.194.041.387.165.537l2.136 2.58c.26.311.72.356 1.032.098l.852-.704v14.417h-1.78c-.404 0-.733.328-.733.733v5.026c0 .405.329.733.733.733h35.184c.404 0 .733-.328.733-.733v-5.026c0-.405-.329-.733-.733-.733h-1.78V19.09l.852.704z"/>
</svg>
