<svg id="Capa_1" enable-background="new 0 0 502 502" height="512" viewBox="0 0 502 502" width="512" xmlns="http://www.w3.org/2000/svg" xmlns:xlink="http://www.w3.org/1999/xlink"><linearGradient id="SVGID_1_" gradientUnits="userSpaceOnUse" x1="251" x2="251" y1="536.89" y2="6"><stop offset="0" stop-color="#465260"/><stop offset="1" stop-color="#5a708d"/></linearGradient><linearGradient id="SVGID_2_" gradientTransform="matrix(0 -1 1 0 -50 352)" gradientUnits="userSpaceOnUse" x1="-104.639" x2="370.938" y1="301" y2="301"><stop offset="0" stop-color="#ec6476"/><stop offset="1" stop-color="#ec909c"/></linearGradient><linearGradient id="SVGID_3_" gradientUnits="userSpaceOnUse" x1="313.744" x2="373.322" y1="242.455" y2="242.455"><stop offset="0" stop-color="#f5e292"/><stop offset="1" stop-color="#fcf5ba"/></linearGradient><linearGradient id="SVGID_4_" gradientUnits="userSpaceOnUse" x1="233.832" x2="233.832" y1="369.291" y2="141.017"><stop offset="0" stop-color="#f9ea9d"/><stop offset="1" stop-color="#fffac7"/></linearGradient><g><path d="m476.879 380.088-96.791 96.791c-16.085 16.085-37.9 25.121-60.648 25.121h-136.88c-22.747 0-44.563-9.036-60.648-25.121l-96.791-96.791c-16.085-16.085-25.121-37.9-25.121-60.648v-136.88c0-22.747 9.036-44.563 25.121-60.648l96.791-96.791c16.085-16.085 37.901-25.121 60.648-25.121h136.88c22.747 0 44.563 9.036 60.648 25.121l96.791 96.791c16.085 16.085 25.121 37.901 25.121 60.648v136.88c0 22.748-9.036 44.563-25.121 60.648z" fill="url(#SVGID_1_)"/><path d="m45.361 174.374v153.252c0 5.476 2.175 10.728 6.048 14.6l108.365 108.365c3.872 3.872 9.124 6.048 14.6 6.048h153.252c5.476 0 10.728-2.175 14.6-6.048l108.365-108.365c3.872-3.872 6.048-9.124 6.048-14.6v-153.252c0-5.476-2.175-10.728-6.048-14.6l-108.365-108.365c-3.872-3.872-9.124-6.048-14.6-6.048h-153.252c-5.476 0-10.728 2.175-14.6 6.048l-108.365 108.365c-3.872 3.872-6.048 9.124-6.048 14.6z" fill="url(#SVGID_2_)"/><path d="m318.454 320.564 20.432-20.432c6.834-6.834 6.834-17.915 0-24.749-6.834-6.834-17.915-6.834-24.749 0l-20.432 20.432c-15.323 15.323-36.491 24.8-59.873 24.8-46.764 0-84.674-37.91-84.674-84.674v-14.34c0-9.665-7.835-17.5-17.5-17.5-9.665 0-17.5 7.835-17.5 17.5v12.99c0 65.952 52.79 120.521 118.74 121.021 32.314.245 62.731-12.225 85.556-35.048z" fill="#e05467"/><g><path d="m293.705 295.814-36.709-36.709 62.407-62.407c10.137-10.137 26.572-10.137 36.709 0 10.137 10.137 10.137 26.572 0 36.709z" fill="url(#SVGID_3_)"/><path d="m297.337 109.173c-11.691 0-21.169 9.477-21.169 21.169v-27.167c0-11.691-9.478-21.169-21.168-21.169-11.691 0-21.169 9.478-21.169 21.169v16.009c0-11.691-9.477-21.168-21.169-21.168-11.691 0-21.168 9.477-21.168 21.168v39.775c0-11.947-9.898-21.583-21.941-21.155-11.471.408-20.396 10.184-20.396 21.662v76.474c0 46.764 37.91 84.674 84.674 84.674 46.764 0 84.674-37.91 84.674-84.674v-105.598c0-11.691-9.477-21.169-21.168-21.169z" fill="url(#SVGID_4_)"/><g fill="#f5c37f"><path d="m191.494 209.652c-5.522 0-10-4.477-10-10v-40.693c0-5.523 4.478-10 10-10 5.523 0 10 4.477 10 10v40.693c0 5.523-4.477 10-10 10z"/><path d="m233.831 195.907c-5.523 0-10-4.477-10-10v-66.724c0-5.522 4.477-10 10-10 5.522 0 10 4.478 10 10v66.724c0 5.523-4.477 10-10 10z"/><path d="m276.169 198.232c-5.522 0-10-4.478-10-10v-57.891c0-5.522 4.478-10 10-10s10 4.478 10 10v57.891c0 5.523-4.478 10-10 10z"/></g></g><g><ellipse cx="163.115" cy="405.575" fill="#efb1d2" rx="14.936" ry="12.003"/><ellipse cx="338.886" cy="405.575" fill="#efb1d2" rx="14.936" ry="12.003"/><circle cx="188.721" cy="375.957" fill="#fff" r="29.618"/><circle cx="313.279" cy="375.957" fill="#fff" r="29.618"/><path d="m198.505 386.387c-2.647.001-5.214-1.404-6.579-3.888-.94-1.711-2.555-1.896-3.205-1.896-.649.001-2.263.186-3.203 1.895-1.996 3.631-6.558 4.955-10.185 2.96-3.63-1.995-4.955-6.555-2.96-10.185 3.277-5.964 9.542-9.669 16.348-9.67 6.806 0 13.07 3.705 16.35 9.669 1.995 3.63.671 8.189-2.959 10.186-1.147.63-2.385.929-3.607.929z" fill="#353544"/><path d="m303.495 386.387c-1.222 0-2.46-.299-3.606-.929-3.63-1.996-4.954-6.556-2.959-10.186 3.278-5.964 9.543-9.669 16.349-9.669h.001c6.806.001 13.07 3.706 16.348 9.67 1.995 3.63.67 8.189-2.96 10.185-3.628 1.996-8.189.671-10.185-2.96-.94-1.709-2.554-1.893-3.203-1.895-.65 0-2.265.185-3.205 1.896-1.366 2.483-3.932 3.888-6.58 3.888z" fill="#353544"/><g><path d="m262.671 415.761h-23.342c-6.508 0-11.784-5.276-11.784-11.784 0-6.508 5.276-11.784 11.784-11.784h23.342c6.508 0 11.784 5.276 11.784 11.784 0 6.508-5.276 11.784-11.784 11.784z" fill="#353544"/></g></g><g fill="#ffb8c1"><path d="m386.576 143.943c-2.56 0-5.118-.977-7.071-2.929l-27.844-27.844c-3.905-3.905-3.905-10.237 0-14.143 3.906-3.904 10.236-3.904 14.143 0l27.844 27.844c3.905 3.905 3.905 10.237 0 14.143-1.954 1.953-4.512 2.929-7.072 2.929z"/><path d="m329.967 87.334c-2.56 0-5.118-.977-7.071-2.929l-4.973-4.973c-3.905-3.905-3.905-10.237 0-14.143 3.906-3.904 10.236-3.904 14.142 0l4.973 4.973c3.905 3.905 3.905 10.237 0 14.143-1.953 1.952-4.512 2.929-7.071 2.929z"/></g></g></svg>